<svg width="144" height="80" viewBox="0 0 144 80" fill="none" xmlns="http://www.w3.org/2000/svg">
<g clip-path="url(#clip0_11012_20433)">
<path d="M95.3028 49.7561C95.5539 49.1754 95.8803 48.6933 96.2822 48.31C96.6805 47.9346 97.1252 47.6926 97.616 47.5838C98.1068 47.475 98.6085 47.5267 99.121 47.7389L98.3471 49.5287C97.9947 49.4047 97.6726 49.407 97.3809 49.5358C97.0857 49.6725 96.8556 49.9318 96.6904 50.3136C96.5219 50.7034 96.4809 51.0492 96.5676 51.3511C96.6622 51.6564 96.8606 51.8744 97.1629 52.0051C97.4095 52.1117 97.645 52.1239 97.8695 52.0416C98.0939 51.9592 98.2998 51.8216 98.487 51.6288C98.6788 51.4473 98.9164 51.1818 99.1997 50.8322C99.5927 50.3601 99.9388 49.9857 100.238 49.709C100.541 49.4437 100.902 49.2548 101.318 49.1424C101.74 49.0413 102.213 49.1043 102.738 49.3314C103.231 49.5446 103.608 49.8537 103.867 50.2585C104.126 50.6633 104.255 51.1298 104.253 51.6578C104.259 52.1893 104.139 52.7414 103.891 53.3141C103.519 54.1732 103.008 54.7781 102.356 55.1288C101.708 55.4908 100.998 55.538 100.227 55.2703L101.021 53.4328C101.314 53.5407 101.602 53.5189 101.885 53.3673C102.172 53.2271 102.397 52.9701 102.558 52.5962C102.7 52.2701 102.729 51.9715 102.648 51.7004C102.564 51.4372 102.363 51.2368 102.044 51.0992C101.822 51.0029 101.604 50.9937 101.391 51.0715C101.182 51.1607 100.984 51.2921 100.795 51.4656C100.612 51.6505 100.374 51.916 100.083 52.2621C99.6897 52.7343 99.3397 53.107 99.0327 53.3802C98.7257 53.6535 98.3597 53.8446 97.9349 53.9536C97.5101 54.0626 97.0392 54.0053 96.5221 53.7817C96.0766 53.5891 95.7129 53.2949 95.4308 52.8991C95.1487 52.5032 94.9887 52.0327 94.9506 51.4875C94.9205 50.9457 95.0379 50.3686 95.3028 49.7561Z" fill="#242A2E"/>
<path d="M95.1547 65.6961L88.4767 59.5527L89.7089 58.2133L92.5504 60.8273L95.182 57.9666L92.3405 55.3526L93.5727 54.0132L100.251 60.1566L99.0185 61.496L96.2727 58.97L93.6411 61.8307L96.3869 64.3567L95.1547 65.6961Z" fill="#242A2E"/>
<path d="M83.3166 62.5506C84.077 62.1721 84.8641 62.003 85.6779 62.0433C86.4918 62.0835 87.2413 62.3252 87.9265 62.7683C88.6156 63.2192 89.159 63.8442 89.5568 64.6433C89.9507 65.4347 90.1178 66.2373 90.0582 67.0512C90.0024 67.8727 89.7452 68.6203 89.2866 69.2939C88.8281 69.9674 88.2186 70.4934 87.4582 70.8719C86.6901 71.2542 85.903 71.4233 85.0969 71.3792C84.283 71.3389 83.5355 71.0914 82.8541 70.6367C82.1689 70.1936 81.6294 69.5764 81.2355 68.785C80.8377 67.9858 80.6667 67.1754 80.7225 66.3539C80.7744 65.5439 81.0296 64.8021 81.4882 64.1286C81.9468 63.455 82.5562 62.929 83.3166 62.5506ZM84.0407 64.0054C83.5519 64.2486 83.1753 64.5716 82.911 64.9742C82.6506 65.3846 82.518 65.8475 82.5131 66.363C82.5083 66.8784 82.6411 67.4077 82.9114 67.9508C83.1817 68.494 83.522 68.9151 83.9323 69.2143C84.3465 69.5213 84.7938 69.6907 85.2744 69.7226C85.7549 69.7545 86.2396 69.6488 86.7284 69.4055C87.2172 69.1622 87.5976 68.8373 87.8697 68.4308C88.134 68.0282 88.2685 67.5692 88.2733 67.0537C88.282 66.546 88.1512 66.0206 87.8809 65.4775C87.6106 64.9343 87.2683 64.5093 86.8542 64.2024C86.44 63.8954 85.9907 63.7221 85.5063 63.6825C85.018 63.6544 84.5295 63.7621 84.0407 64.0054Z" fill="#242A2E"/>
<path d="M73.173 71.6301C73.1115 71.1487 73.1698 70.6826 73.3481 70.2316C73.5178 69.7818 73.8311 69.3967 74.2882 69.0761C74.7366 68.7567 75.3305 68.5497 76.0698 68.4552L77.5786 68.2624L77.1368 64.8065L78.9421 64.5757L80.0926 73.5765L76.7786 74.0001C76.0823 74.0891 75.4737 74.0446 74.9529 73.8665C74.4321 73.6884 74.0245 73.4042 73.7299 73.0137C73.4268 72.6243 73.2411 72.1631 73.173 71.6301ZM76.3335 69.9025C75.8348 69.9662 75.4795 70.1252 75.2673 70.3795C75.0563 70.6424 74.9772 70.9801 75.0299 71.3928C75.142 72.2696 75.688 72.6454 76.6681 72.5202L78.0994 72.3372L77.7648 69.7195L76.3335 69.9025Z" fill="#242A2E"/>
<path d="M60.6406 62.6124L62.3547 63.2242L64.1429 70.4741L66.2359 64.6094L67.95 65.2211L64.8957 73.7794L63.1816 73.1677L61.3977 65.9055L59.3003 71.7825L57.5862 71.1707L60.6406 62.6124Z" fill="#242A2E"/>
<path d="M56.0154 59.0871C56.6593 59.6409 57.1207 60.3007 57.3995 61.0663C57.6783 61.832 57.7465 62.6166 57.6041 63.4201C57.456 64.2301 57.091 64.9735 56.5089 65.6503C55.9324 66.3205 55.2576 66.786 54.4844 67.047C53.7056 67.3145 52.9168 67.3676 52.1181 67.2064C51.3193 67.0452 50.598 66.6877 49.9541 66.1339C49.3036 65.5744 48.8423 64.9146 48.57 64.1546C48.2912 63.3889 48.2291 62.6039 48.3838 61.7995C48.5262 60.996 48.8856 60.2592 49.462 59.589C50.0442 58.9122 50.7246 58.4401 51.5034 58.1726C52.27 57.906 53.0527 57.8533 53.8514 58.0145C54.6502 58.1757 55.3715 58.5332 56.0154 59.0871ZM54.9557 60.319C54.5418 59.963 54.098 59.7413 53.6244 59.654C53.1451 59.5733 52.667 59.6307 52.1901 59.8264C51.7131 60.022 51.2769 60.3498 50.8813 60.8097C50.4857 61.2696 50.2296 61.7467 50.1131 62.241C49.991 62.7418 50.0085 63.2199 50.1656 63.6751C50.3228 64.1304 50.6083 64.536 51.0223 64.8921C51.4362 65.2481 51.8833 65.4726 52.3635 65.5656C52.8371 65.6529 53.3124 65.5987 53.7893 65.4031C54.2606 65.214 54.694 64.8895 55.0896 64.4295C55.4852 63.9696 55.7441 63.4892 55.8662 62.9884C55.9884 62.4876 55.9737 62.0063 55.8222 61.5444C55.6585 61.0835 55.3697 60.6751 54.9557 60.319Z" fill="#242A2E"/>
<path d="M38.834 49.0021L48.14 47.5323L49.0324 49.4828L43.8656 53.7194L50.4819 52.651L51.3807 54.5844L44.1342 60.5873L43.3229 58.814L49.065 54.4286L41.8897 55.6813L41.046 53.8371L46.6931 49.3379L39.6506 50.7872L38.834 49.0021Z" fill="#242A2E"/>
<path d="M48.9452 31.5071C48.7143 32.0961 48.4047 32.5891 48.0163 32.9861C47.6312 33.375 47.1952 33.6323 46.7084 33.758C46.2216 33.8837 45.7184 33.8494 45.1989 33.655L45.9105 31.8395C46.267 31.9513 46.5888 31.9378 46.8759 31.799C47.1662 31.6522 47.3872 31.3851 47.5391 30.9978C47.694 30.6024 47.723 30.2554 47.626 29.9567C47.5209 29.6549 47.3151 29.4439 47.0084 29.3237C46.7583 29.2256 46.5225 29.2216 46.301 29.3117C46.0796 29.4017 45.8786 29.5463 45.6981 29.7455C45.5127 29.9335 45.2845 30.2071 45.0133 30.5663C44.6369 31.0517 44.304 31.4378 44.0147 31.7247C43.7205 32.0003 43.367 32.2015 42.9542 32.3283C42.5366 32.4439 42.0615 32.3973 41.529 32.1885C41.0287 31.9924 40.642 31.6965 40.3689 31.3009C40.0958 30.9053 39.9509 30.4436 39.9344 29.9158C39.9098 29.3849 40.0114 28.8289 40.2391 28.248C40.5807 27.3765 41.0713 26.7543 41.7109 26.3813C42.3455 25.9971 43.0532 25.9254 43.8338 26.1663L43.1031 28.0302C42.8063 27.9325 42.5193 27.9642 42.242 28.1255C41.9597 28.2755 41.7443 28.5401 41.5957 28.9194C41.466 29.2502 41.4463 29.5497 41.5367 29.8178C41.6302 30.0779 41.8384 30.2712 42.1611 30.3977C42.3871 30.4863 42.6051 30.488 42.8154 30.4028C43.0207 30.3064 43.2145 30.1683 43.3967 29.9884C43.574 29.7973 43.8023 29.5237 44.0815 29.1677C44.4579 28.6823 44.7949 28.2977 45.0922 28.014C45.3896 27.7303 45.7487 27.5266 46.1695 27.403C46.5903 27.2794 47.063 27.3204 47.5875 27.526C48.0393 27.7031 48.413 27.9846 48.7086 28.3704C49.0042 28.7562 49.1804 29.2209 49.2373 29.7645C49.2861 30.3049 49.1887 30.8858 48.9452 31.5071Z" fill="#242A2E"/>
<path d="M48.5511 15.5523L55.4303 21.4695L54.2435 22.8492L51.3163 20.3315L48.7816 23.2783L51.7088 25.7961L50.5219 27.1759L43.6427 21.2587L44.8295 19.8789L47.6581 22.3119L50.1928 19.3651L47.3642 16.932L48.5511 15.5523Z" fill="#242A2E"/>
<path d="M60.4517 18.3028C59.7041 18.7059 58.923 18.9007 58.1082 18.8871C57.2935 18.8735 56.5364 18.6564 55.8371 18.236C55.1336 17.8079 54.5701 17.201 54.1464 16.4153C53.7268 15.6372 53.5335 14.8405 53.5665 14.0252C53.5954 13.2022 53.828 12.4466 54.2643 11.7584C54.7006 11.0702 55.2925 10.5246 56.0401 10.1214C56.7953 9.71422 57.5765 9.51947 58.3836 9.53719C59.1983 9.5508 59.9536 9.7737 60.6494 10.2059C61.3488 10.6263 61.9082 11.2256 62.3278 12.0037C62.7515 12.7894 62.9489 13.5938 62.92 14.4167C62.8946 15.2279 62.6638 15.9777 62.2275 16.6659C61.7912 17.3541 61.1993 17.8997 60.4517 18.3028ZM59.6804 16.8725C60.161 16.6134 60.5268 16.2783 60.7778 15.8672C61.0247 15.4486 61.1421 14.9816 61.13 14.4662C61.118 13.9508 60.968 13.4262 60.6801 12.8922C60.3921 12.3582 60.0382 11.9484 59.6184 11.6628C59.1944 11.3696 58.7417 11.2149 58.2604 11.1987C57.7791 11.1826 57.2981 11.3041 56.8175 11.5632C56.3369 11.8223 55.9673 12.1595 55.7087 12.5746C55.4577 12.9857 55.3383 13.4489 55.3503 13.9642C55.3582 14.472 55.5062 14.9928 55.7941 15.5268C56.0821 16.0608 56.438 16.4744 56.862 16.7676C57.286 17.0609 57.7407 17.2194 58.2261 17.2432C58.7151 17.2552 59.1998 17.1317 59.6804 16.8725Z" fill="#242A2E"/>
<path d="M70.3093 8.8566C70.387 9.33568 70.3443 9.80354 70.1813 10.2602C70.0268 10.7154 69.7265 11.1109 69.2805 11.4466C68.8431 11.7809 68.2565 12.0077 67.5207 12.127L66.0193 12.3704L66.5769 15.8095L64.7803 16.1008L63.3282 7.14372L66.6261 6.60905C67.3191 6.49671 67.9288 6.52078 68.4553 6.68126C68.9817 6.84175 69.3987 7.11217 69.7062 7.49253C70.0223 7.8715 70.2233 8.32619 70.3093 8.8566ZM67.2086 10.6894C67.7048 10.609 68.0547 10.4381 68.2581 10.1769C68.4602 9.90705 68.528 9.56682 68.4614 9.15618C68.32 8.28357 67.7616 7.92632 66.7863 8.08444L65.3619 8.31536L65.7842 10.9204L67.2086 10.6894Z" fill="#242A2E"/>
<path d="M83.0554 17.4163L81.3211 16.8644L79.2826 9.68093L77.3942 15.6147L75.6599 15.0628L78.4156 6.40369L80.1499 6.95561L82.1845 14.1515L84.0768 8.20533L85.8111 8.75726L83.0554 17.4163Z" fill="#242A2E"/>
<path d="M87.8669 20.7722C87.2048 20.2402 86.7216 19.5963 86.4173 18.8404C86.1131 18.0845 86.0186 17.3026 86.134 16.4948C86.2549 15.6803 86.5949 14.9251 87.154 14.2292C87.7077 13.5401 88.3665 13.0522 89.1305 12.7655C89.8999 12.4721 90.6865 12.3926 91.4902 12.5269C92.2939 12.6613 93.0268 12.9944 93.6889 13.5264C94.3577 14.0638 94.8409 14.7078 95.1384 15.4583C95.4427 16.2142 95.5311 16.9967 95.4035 17.8058C95.288 18.6136 94.9535 19.3621 94.3998 20.0512C93.8407 20.747 93.1764 21.2417 92.407 21.5351C91.6497 21.8272 90.8693 21.9061 90.0656 21.7717C89.2619 21.6374 88.529 21.3042 87.8669 20.7722ZM88.8847 19.5055C89.3104 19.8475 89.7613 20.0542 90.2376 20.1255C90.7193 20.1902 91.1952 20.1168 91.6653 19.9053C92.1355 19.6938 92.5605 19.3515 92.9405 18.8786C93.3205 18.4057 93.5604 17.9203 93.6603 17.4224C93.7656 16.9178 93.7321 16.4406 93.5598 15.9909C93.3875 15.5411 93.0885 15.1453 92.6629 14.8033C92.2373 14.4613 91.7829 14.2519 91.2999 14.1751C90.8236 14.1037 90.3504 14.1737 89.8803 14.3852C89.4156 14.59 88.9933 14.9288 88.6133 15.4017C88.2333 15.8746 87.9907 16.3634 87.8854 16.8681C87.7801 17.3727 87.8109 17.8533 87.9777 18.3097C88.1568 18.7649 88.4591 19.1635 88.8847 19.5055Z" fill="#242A2E"/>
<path d="M105.399 30.2786L96.1462 32.0523L95.1904 30.132L100.216 25.7285L93.638 27.0129L92.6764 25.1101L99.7225 18.8732L100.591 20.6189L94.996 25.1899L102.126 23.703L103.03 25.5186L97.5332 30.2002L104.524 28.5212L105.399 30.2786Z" fill="#242A2E"/>
</g>
<defs>
<clipPath id="clip0_11012_20433">
<rect width="144" height="80" fill="white"/>
</clipPath>
</defs>
</svg>
